<?xml version="1.0" standalone="no"?>
<!DOCTYPE svg PUBLIC "-//W3C//DTD SVG 20010904//EN"
 "http://www.w3.org/TR/2001/REC-SVG-20010904/DTD/svg10.dtd">
<svg version="1.0" xmlns="http://www.w3.org/2000/svg"
 width="500.000000pt" height="500.000000pt" viewBox="0 0 500.000000 500.000000"
 preserveAspectRatio="xMidYMid meet">
<metadata>
Created by potrace 1.14, written by Peter Selinger 2001-2017
</metadata>
<g transform="translate(0.000000,500.000000) scale(0.100000,-0.100000)"
fill="#000000" stroke="none">
<path d="M2501 2776 c-66 -24 -109 -73 -210 -244 -149 -252 -150 -254 -106
-297 l24 -25 491 0 490 0 0 185 0 185 40 0 c29 0 40 -4 40 -15 0 -18 1 -18 36
0 37 19 58 19 98 0 45 -22 66 -62 66 -130 0 -51 -3 -60 -34 -91 -28 -28 -41
-34 -78 -34 -24 0 -54 7 -66 16 l-22 15 0 -65 0 -66 305 0 c334 0 341 1 408
60 22 19 79 103 136 199 149 252 150 253 106 296 l-24 25 -833 -1 c-628 0
-841 -4 -867 -13z m1077 -120 c8 -39 -52 -63 -78 -31 -16 19 -5 62 18 68 22 5
56 -16 60 -37z m-878 -53 c0 -65 0 -66 19 -49 11 10 37 20 58 23 32 4 45 0 71
-22 l32 -27 0 -109 0 -109 -40 0 -40 0 0 83 c0 91 -8 107 -52 107 -38 0 -48
-24 -48 -114 l0 -76 -45 0 -45 0 0 180 0 180 45 0 45 0 0 -67z m-131 -43 c18
-9 19 -14 9 -36 -10 -21 -16 -24 -37 -18 -39 11 -84 10 -88 -2 -2 -6 25 -21
59 -35 68 -26 87 -52 74 -102 -13 -52 -115 -74 -191 -43 -33 14 -34 17 -23 41
9 21 16 25 32 19 12 -3 41 -9 65 -11 32 -4 42 -2 39 8 -5 14 -13 19 -75 44
-74 31 -80 109 -11 141 36 16 113 13 147 -6z m526 6 c18 -8 38 -23 44 -34 6
-12 11 -66 11 -121 l0 -101 -40 0 c-30 0 -40 4 -40 16 0 14 -2 14 -22 0 -12
-9 -40 -16 -62 -16 -53 0 -86 30 -86 80 0 54 26 73 106 78 66 4 75 10 49 32
-11 9 -32 11 -69 6 -49 -5 -54 -4 -64 19 -6 14 -11 25 -9 25 1 0 20 7 42 15
51 18 97 19 140 1z m483 -123 l3 -133 -46 0 -45 0 0 128 c0 71 3 132 7 136 4
4 23 6 43 4 l35 -3 3 -132z m122 117 c0 -20 0 -20 33 0 47 29 57 26 57 -17 0
-36 1 -37 15 -16 23 32 92 56 142 48 80 -12 135 -89 114 -161 -16 -54 -23 -64
-58 -85 -28 -17 -45 -21 -95 -17 -55 4 -64 8 -95 42 -32 35 -34 42 -31 92 3
50 1 54 -19 54 -45 0 -63 -33 -63 -115 l0 -75 -40 0 -40 0 0 135 0 135 40 0
c33 0 40 -3 40 -20z"/>
<path d="M2980 2396 c0 -13 7 -27 16 -30 22 -8 68 15 72 37 3 14 -4 17 -42 17
-42 0 -46 -2 -46 -24z"/>
<path d="M3887 2498 c-9 -7 -20 -27 -23 -45 -5 -26 -1 -37 19 -57 31 -31 50
-33 77 -6 55 55 -11 153 -73 108z"/>
<path d="M1892 2684 c-37 -26 -23 -74 23 -74 42 0 59 44 29 74 -19 20 -24 20
-52 0z"/>
<path d="M1180 2610 c0 -33 -2 -60 -4 -60 -2 0 -17 7 -32 15 -65 34 -139 0
-163 -73 -18 -58 -7 -108 34 -149 27 -27 41 -33 77 -33 24 0 54 7 66 16 20 14
22 14 22 0 0 -12 10 -16 40 -16 l40 0 0 180 0 180 -40 0 -40 0 0 -60z m-33
-108 c21 -13 33 -60 23 -86 -9 -24 -37 -46 -59 -46 -22 0 -51 41 -51 72 0 52
48 85 87 60z"/>
<path d="M1365 2573 c-56 -14 -65 -22 -56 -45 7 -21 15 -23 72 -23 52 0 64 -3
67 -17 3 -15 -4 -18 -42 -18 -58 0 -91 -13 -112 -44 -19 -30 -13 -67 16 -96
23 -23 88 -27 123 -9 16 9 22 9 25 0 2 -6 21 -11 43 -11 l39 0 0 95 c0 111
-13 147 -61 164 -33 11 -78 13 -114 4z m85 -173 c0 -26 -43 -44 -71 -30 -21
12 -21 12 -13 34 4 11 19 16 45 16 32 0 39 -3 39 -20z"/>
<path d="M1577 2573 c-4 -3 -7 -64 -7 -135 l0 -128 45 0 45 0 0 83 c0 91 8
107 52 107 38 0 48 -24 48 -114 l0 -76 40 0 40 0 0 104 c0 96 -2 107 -24 133
-20 23 -32 28 -69 28 -29 0 -52 -6 -65 -18 -19 -17 -20 -17 -25 3 -4 15 -13
20 -39 20 -19 0 -38 -3 -41 -7z"/>
<path d="M1877 2574 c-4 -4 -7 -65 -7 -136 l0 -128 45 0 46 0 -3 133 -3 132
-35 3 c-20 2 -39 0 -43 -4z"/>
<path d="M3286 2488 c-9 -12 -16 -33 -16 -46 0 -23 40 -72 60 -72 20 0 60 49
60 72 0 37 -27 68 -60 68 -18 0 -34 -8 -44 -22z"/>
</g>
</svg>
